<svg xmlns="http://www.w3.org/2000/svg" xmlns:xlink="http://www.w3.org/1999/xlink" width="2000" zoomAndPan="magnify" viewBox="0 0 1500 1499.999933" height="2000" preserveAspectRatio="xMidYMid meet" version="1.0"><defs><clipPath id="08a5d7b5fe"><path d="M 117.398438 117.394531 L 1382.644531 117.394531 L 1382.644531 1382.644531 L 117.398438 1382.644531 Z M 117.398438 117.394531 " clip-rule="nonzero"/></clipPath><clipPath id="59f4040103"><path d="M 441 423 L 1059 423 L 1059 1077 L 441 1077 Z M 441 423 " clip-rule="nonzero"/></clipPath><clipPath id="2b43539984"><path d="M 1050.746094 1076.382812 L 441.789062 1069.125 L 449.484375 423.417969 L 1058.441406 430.679688 Z M 1050.746094 1076.382812 " clip-rule="nonzero"/></clipPath><clipPath id="a0ff5198e0"><path d="M 418 310 L 490 310 L 490 383 L 418 383 Z M 418 310 " clip-rule="nonzero"/></clipPath><clipPath id="0363428b6c"><path d="M 609.746094 653.382812 L 0.789062 646.125 L 8.484375 0.417969 L 617.441406 7.679688 Z M 609.746094 653.382812 " clip-rule="nonzero"/></clipPath><clipPath id="77f2c5b731"><path d="M 0.554688 646.121094 L 609.511719 653.378906 L 617.207031 7.675781 L 8.25 0.417969 Z M 0.554688 646.121094 " clip-rule="nonzero"/></clipPath><clipPath id="d32f8937af"><path d="M 274 309 L 345 309 L 345 382 L 274 382 Z M 274 309 " clip-rule="nonzero"/></clipPath><clipPath id="23ef232405"><path d="M 609.746094 653.382812 L 0.789062 646.125 L 8.484375 0.417969 L 617.441406 7.679688 Z M 609.746094 653.382812 " clip-rule="nonzero"/></clipPath><clipPath id="3949d7f1f2"><path d="M 0.554688 646.121094 L 609.511719 653.378906 L 617.207031 7.675781 L 8.25 0.417969 Z M 0.554688 646.121094 " clip-rule="nonzero"/></clipPath><clipPath id="e5ff69f3b7"><path d="M 127 307 L 199 307 L 199 379 L 127 379 Z M 127 307 " clip-rule="nonzero"/></clipPath><clipPath id="64c58c1a2d"><path d="M 609.746094 653.382812 L 0.789062 646.125 L 8.484375 0.417969 L 617.441406 7.679688 Z M 609.746094 653.382812 " clip-rule="nonzero"/></clipPath><clipPath id="2ad2fe886a"><path d="M 0.554688 646.121094 L 609.511719 653.378906 L 617.207031 7.675781 L 8.25 0.417969 Z M 0.554688 646.121094 " clip-rule="nonzero"/></clipPath><clipPath id="19534dfd22"><path d="M 1 7 L 617 7 L 617 652 L 1 652 Z M 1 7 " clip-rule="nonzero"/></clipPath><clipPath id="152145bf21"><path d="M 609.746094 653.382812 L 0.789062 646.125 L 8.484375 0.417969 L 617.441406 7.679688 Z M 609.746094 653.382812 " clip-rule="nonzero"/></clipPath><clipPath id="0e5f66306c"><path d="M 0.554688 646.121094 L 609.511719 653.378906 L 617.207031 7.675781 L 8.25 0.417969 Z M 0.554688 646.121094 " clip-rule="nonzero"/></clipPath><clipPath id="4b4cfa64ce"><rect x="0" width="618" y="0" height="654"/></clipPath></defs><g clip-path="url(#08a5d7b5fe)"><path fill="#252825" d="M 523.691406 1340.625 C 444.867188 1310.488281 372.996094 1265.277344 311.558594 1206.160156 C 250.125 1147.042969 202.015625 1077.492188 168.402344 999.824219 C 135.945312 924.480469 119.136719 845.074219 117.398438 762.773438 C 115.65625 680.46875 129.566406 600.488281 159.128906 523.980469 C 189.265625 445.15625 234.472656 373.285156 293.59375 311.851562 C 352.710938 250.414062 422.261719 202.308594 499.925781 168.691406 C 575.273438 136.234375 654.679688 119.425781 736.980469 117.6875 C 819.28125 115.949219 899.265625 129.859375 975.773438 159.417969 C 1054.597656 189.554688 1126.464844 234.765625 1187.902344 293.882812 C 1249.339844 353 1297.445312 422.550781 1331.0625 500.21875 C 1363.519531 575.5625 1380.328125 654.96875 1382.066406 737.269531 C 1383.804688 819.574219 1369.894531 899.554688 1340.335938 976.0625 C 1310.199219 1054.886719 1264.988281 1126.757812 1205.871094 1188.191406 C 1146.753906 1249.628906 1077.203125 1297.734375 999.535156 1331.351562 C 924.1875 1363.808594 844.785156 1380.617188 762.484375 1382.355469 C 757.847656 1382.355469 753.789062 1382.355469 749.152344 1382.355469 C 671.488281 1382.355469 595.558594 1368.445312 523.691406 1340.625 Z M 738.140625 187.816406 C 588.027344 190.714844 447.765625 252.152344 344.015625 360.535156 C 240.269531 468.917969 184.628906 611.5 187.527344 761.613281 C 190.425781 911.726562 251.863281 1051.988281 360.246094 1155.734375 C 465.730469 1257.164062 603.675781 1312.226562 749.730469 1312.226562 C 753.789062 1312.226562 757.265625 1312.226562 761.324219 1312.226562 C 911.4375 1309.328125 1051.699219 1247.890625 1155.445312 1139.507812 C 1259.191406 1031.125 1314.835938 888.542969 1311.9375 738.429688 C 1309.039062 588.316406 1247.601562 448.054688 1139.21875 344.308594 C 1033.730469 242.878906 895.789062 187.816406 749.730469 187.816406 C 603.675781 187.816406 742.195312 187.816406 738.140625 187.816406 Z M 738.140625 187.816406 " fill-opacity="1" fill-rule="nonzero"/></g><g clip-path="url(#59f4040103)"><g clip-path="url(#2b43539984)"><g transform="matrix(1, 0, 0, 1, 441, 423)"><g clip-path="url(#4b4cfa64ce)"><g clip-path="url(#a0ff5198e0)"><g clip-path="url(#0363428b6c)"><g clip-path="url(#77f2c5b731)"><path fill="#f66b0e" d="M 453.765625 382.019531 C 472.917969 382.25 489.539062 364.65625 489.75 346.863281 C 491.34375 329.089844 473.765625 311.085938 454.613281 310.859375 C 435.460938 310.628906 418.835938 326.863281 418.609375 346.015625 C 418.378906 365.167969 434.613281 381.792969 453.765625 382.019531 " fill-opacity="1" fill-rule="nonzero"/></g></g></g><g clip-path="url(#d32f8937af)"><g clip-path="url(#23ef232405)"><g clip-path="url(#3949d7f1f2)"><path fill="#f66b0e" d="M 274.945312 345.664062 C 274.71875 364.820312 290.949219 381.441406 308.722656 381.65625 C 329.257812 381.898438 344.480469 367.035156 344.726562 346.496094 C 343.625 324.605469 328.738281 309.359375 309.585938 309.128906 C 290.433594 308.902344 273.828125 325.132812 274.945312 345.664062 " fill-opacity="1" fill-rule="nonzero"/></g></g></g><g clip-path="url(#e5ff69f3b7)"><g clip-path="url(#64c58c1a2d)"><g clip-path="url(#2ad2fe886a)"><path fill="#f66b0e" d="M 162.367188 378.546875 C 181.519531 378.777344 198.140625 361.179688 198.351562 343.390625 C 199.925781 325.617188 182.367188 307.613281 163.214844 307.386719 C 144.042969 307.15625 127.4375 323.390625 127.210938 342.542969 C 126.980469 361.695312 143.195312 378.320312 162.367188 378.546875 " fill-opacity="1" fill-rule="nonzero"/></g></g></g><g clip-path="url(#19534dfd22)"><g clip-path="url(#152145bf21)"><g clip-path="url(#0e5f66306c)"><path fill="#f66b0e" d="M 562.765625 96.9375 L 459.710938 193.324219 C 454.679688 198.074219 448.0625 200.65625 441.210938 200.574219 L 103.457031 196.550781 C 79.019531 196.257812 58.785156 215.9375 58.492188 240.476562 L 55.539062 488.078125 L 558.035156 494.070312 Z M 78.917969 592.824219 C 92.703125 592.988281 104.023438 581.917969 104.1875 568.152344 C 104.351562 554.46875 93.300781 543.125 79.511719 542.960938 C 65.726562 542.796875 54.386719 553.871094 54.222656 567.554688 C 54.058594 581.320312 65.132812 592.660156 78.917969 592.824219 Z M 173.691406 593.957031 C 187.476562 594.121094 198.796875 583.046875 198.960938 569.28125 C 199.125 555.597656 188.070312 544.257812 174.285156 544.09375 C 160.582031 543.929688 149.261719 555.003906 149.097656 568.6875 C 148.933594 582.453125 159.988281 593.792969 173.691406 593.957031 Z M 268.546875 595.085938 C 282.25 595.25 293.570312 584.175781 293.734375 570.410156 C 293.898438 556.726562 282.84375 545.386719 269.140625 545.222656 C 255.355469 545.058594 244.035156 556.132812 243.871094 569.816406 C 243.707031 583.582031 254.761719 594.921875 268.546875 595.085938 Z M 511.691406 651.796875 L 98.089844 646.867188 C 44.222656 646.226562 0.824219 601.863281 1.46875 547.894531 L 5.140625 239.839844 C 5.785156 185.871094 50.226562 142.578125 104.09375 143.21875 L 431.09375 147.117188 L 571.914062 15.222656 C 577.03125 10.390625 583.726562 7.890625 590.496094 7.972656 C 593.964844 8.011719 597.589844 8.777344 600.875 10.242188 C 610.6875 14.527344 616.972656 24.304688 616.84375 34.976562 L 610.644531 555.15625 C 610 609.125 565.558594 652.4375 511.691406 651.796875 " fill-opacity="1" fill-rule="nonzero"/></g></g></g></g></g></g></g></svg>
