<svg xmlns="http://www.w3.org/2000/svg" xmlns:xlink="http://www.w3.org/1999/xlink" width="2000" zoomAndPan="magnify" viewBox="0 0 1500 1499.999933" height="2000" preserveAspectRatio="xMidYMid meet" version="1.0"><defs><g/><clipPath id="b292bb03fa"><rect x="0" width="1105" y="0" height="260"/></clipPath><clipPath id="7c6b2a805d"><path d="M 1138.53125 449.023438 L 1350 449.023438 L 1350 673 L 1138.53125 673 Z M 1138.53125 449.023438 " clip-rule="nonzero"/></clipPath><clipPath id="f26e8241e2"><rect x="0" width="577" y="0" height="98"/></clipPath></defs><rect x="-150" width="1800" fill="#ffffff" y="-149.999993" height="1799.99992" fill-opacity="1"/><rect x="-150" width="1800" fill="#373643" y="-149.999993" height="1799.99992" fill-opacity="1"/><g transform="matrix(1, 0, 0, 1, 193, 593)"><g clip-path="url(#b292bb03fa)"><g fill="#ffffff" fill-opacity="1"><g transform="translate(4.276968, 204.160621)"><g><path d="M 100.015625 -138.859375 C 103.015625 -138.859375 105.835938 -138 108.484375 -136.28125 C 111.140625 -134.570312 112.46875 -131.851562 112.46875 -128.125 L 112.46875 -10.953125 C 112.46875 -3.648438 108.316406 0 100.015625 0 C 92.578125 0 88.710938 -3.429688 88.421875 -10.296875 C 83.847656 -6.296875 78.695312 -3.253906 72.96875 -1.171875 C 67.25 0.898438 61.8125 1.9375 56.65625 1.9375 C 45.925781 1.9375 36.660156 -0.492188 28.859375 -5.359375 C 21.066406 -10.222656 15.09375 -17.019531 10.9375 -25.75 C 6.789062 -34.476562 4.71875 -44.492188 4.71875 -55.796875 C 4.71875 -66.671875 6.9375 -76.257812 11.375 -84.5625 C 15.8125 -92.863281 22 -99.410156 29.9375 -104.203125 C 37.882812 -108.992188 47.078125 -111.390625 57.515625 -111.390625 C 62.242188 -111.390625 67.320312 -110.457031 72.75 -108.59375 C 78.1875 -106.738281 83.269531 -103.953125 88 -100.234375 L 88 -128.125 C 88 -131.851562 89.25 -134.570312 91.75 -136.28125 C 94.257812 -138 97.015625 -138.859375 100.015625 -138.859375 Z M 57.3125 -19.75 C 64.457031 -19.75 70.925781 -21.359375 76.71875 -24.578125 C 82.519531 -27.796875 86.421875 -32.476562 88.421875 -38.625 L 88.203125 -71.6875 C 85.773438 -77.550781 81.804688 -82.019531 76.296875 -85.09375 C 70.785156 -88.175781 65.097656 -89.71875 59.234375 -89.71875 C 50.222656 -89.71875 42.960938 -86.460938 37.453125 -79.953125 C 31.941406 -73.441406 29.1875 -65.320312 29.1875 -55.59375 C 29.1875 -45.144531 31.757812 -36.554688 36.90625 -29.828125 C 42.0625 -23.109375 48.863281 -19.75 57.3125 -19.75 Z M 57.3125 -19.75 "/></g></g></g><g fill="#ffffff" fill-opacity="1"><g transform="translate(128.530407, 204.160621)"><g><path d="M 61.375 -19.109375 C 65.53125 -19.109375 69.609375 -19.675781 73.609375 -20.8125 C 77.617188 -21.957031 81.34375 -23.890625 84.78125 -26.609375 C 88.070312 -29.617188 91.289062 -31.015625 94.4375 -30.796875 C 97.582031 -30.585938 100.191406 -29.441406 102.265625 -27.359375 C 104.335938 -25.285156 105.375 -22.710938 105.375 -19.640625 C 105.375 -16.566406 103.875 -13.597656 100.875 -10.734375 C 95.863281 -5.867188 89.925781 -2.46875 83.0625 -0.53125 C 76.195312 1.394531 69.1875 2.285156 62.03125 2.140625 C 50.863281 2.140625 41.023438 -0.144531 32.515625 -4.71875 C 24.003906 -9.300781 17.347656 -15.671875 12.546875 -23.828125 C 7.753906 -31.984375 5.359375 -41.425781 5.359375 -52.15625 C 5.359375 -63.882812 7.648438 -74.179688 12.234375 -83.046875 C 16.816406 -91.921875 23.289062 -98.863281 31.65625 -103.875 C 40.03125 -108.882812 49.9375 -111.390625 61.375 -111.390625 C 72.820312 -111.390625 82.550781 -109.0625 90.5625 -104.40625 C 98.582031 -99.757812 104.703125 -93.25 108.921875 -84.875 C 113.140625 -76.507812 115.25 -66.75 115.25 -55.59375 C 115.25 -52.007812 114.535156 -48.960938 113.109375 -46.453125 C 111.679688 -43.953125 107.890625 -42.703125 101.734375 -42.703125 L 30.265625 -42.703125 C 32.265625 -35.691406 36.050781 -30.003906 41.625 -25.640625 C 47.207031 -21.285156 53.789062 -19.109375 61.375 -19.109375 Z M 61.59375 -90.140625 C 53.300781 -90.140625 46.363281 -87.523438 40.78125 -82.296875 C 35.195312 -77.078125 31.617188 -70.25 30.046875 -61.8125 L 92.5 -61.8125 C 91.789062 -70.25 89 -77.078125 84.125 -82.296875 C 79.257812 -87.523438 71.75 -90.140625 61.59375 -90.140625 Z M 61.59375 -90.140625 "/></g></g></g><g fill="#ffffff" fill-opacity="1"><g transform="translate(253.213094, 204.160621)"><g><path d="M 157.109375 -111.390625 C 167.117188 -111.390625 175.628906 -109.207031 182.640625 -104.84375 C 189.648438 -100.476562 195.015625 -94.394531 198.734375 -86.59375 C 202.460938 -78.800781 204.328125 -69.753906 204.328125 -59.453125 L 204.328125 -11.15625 C 204.328125 -7.863281 203.285156 -5.179688 201.203125 -3.109375 C 199.128906 -1.035156 196.09375 0 192.09375 0 C 188.507812 0 185.570312 -1.035156 183.28125 -3.109375 C 181 -5.179688 179.859375 -7.863281 179.859375 -11.15625 L 179.859375 -59.875 C 179.859375 -68.75 177.742188 -75.972656 173.515625 -81.546875 C 169.296875 -87.128906 162.679688 -89.921875 153.671875 -89.921875 C 149.085938 -89.921875 144.253906 -88.488281 139.171875 -85.625 C 134.097656 -82.769531 129.804688 -78.625 126.296875 -73.1875 C 122.796875 -67.75 121.046875 -61.097656 121.046875 -53.234375 L 121.046875 -11.15625 C 121.046875 -7.863281 120.007812 -5.179688 117.9375 -3.109375 C 115.863281 -1.035156 112.894531 0 109.03125 0 C 105.445312 0 102.472656 -1.035156 100.109375 -3.109375 C 97.753906 -5.179688 96.578125 -7.863281 96.578125 -11.15625 L 96.578125 -59.875 C 96.578125 -68.75 94.46875 -75.972656 90.25 -81.546875 C 86.03125 -87.128906 79.410156 -89.921875 70.390625 -89.921875 C 67.671875 -89.921875 64.523438 -89.171875 60.953125 -87.671875 C 57.378906 -86.171875 53.875 -83.914062 50.4375 -80.90625 C 47 -77.90625 44.171875 -74.113281 41.953125 -69.53125 C 39.734375 -64.957031 38.625 -59.523438 38.625 -53.234375 L 38.625 -10.734375 C 38.625 -7.148438 37.335938 -4.460938 34.765625 -2.671875 C 32.191406 -0.890625 29.40625 0 26.40625 0 C 23.25 0 20.453125 -0.890625 18.015625 -2.671875 C 15.585938 -4.460938 14.375 -7.148438 14.375 -10.734375 L 14.375 -98.296875 C 14.375 -101.304688 15.554688 -103.882812 17.921875 -106.03125 C 20.285156 -108.175781 23.113281 -109.25 26.40625 -109.25 C 30.125 -109.25 33.085938 -108.175781 35.296875 -106.03125 C 37.515625 -103.882812 38.625 -101.304688 38.625 -98.296875 L 38.625 -97.65625 C 44.5 -103.238281 50.507812 -106.921875 56.65625 -108.703125 C 62.8125 -110.492188 68.609375 -111.390625 74.046875 -111.390625 C 83.054688 -111.390625 90.851562 -109.5625 97.4375 -105.90625 C 104.019531 -102.257812 109.242188 -97.289062 113.109375 -91 C 117.546875 -96.4375 122.335938 -100.617188 127.484375 -103.546875 C 132.640625 -106.484375 137.789062 -108.523438 142.9375 -109.671875 C 148.09375 -110.816406 152.816406 -111.390625 157.109375 -111.390625 Z M 157.109375 -111.390625 "/></g></g></g><g fill="#ffffff" fill-opacity="1"><g transform="translate(474.252638, 204.160621)"><g><path d="M 99.796875 -109.25 C 103.515625 -109.25 106.484375 -108.207031 108.703125 -106.125 C 110.921875 -104.050781 112.03125 -101.367188 112.03125 -98.078125 L 112.03125 -11.15625 C 112.03125 -7.863281 110.921875 -5.179688 108.703125 -3.109375 C 106.484375 -1.035156 103.515625 0 99.796875 0 C 96.222656 0 93.429688 -0.820312 91.421875 -2.46875 C 89.421875 -4.113281 88.207031 -6.296875 87.78125 -9.015625 C 82.914062 -5.148438 77.476562 -2.320312 71.46875 -0.53125 C 65.457031 1.25 59.734375 2.140625 54.296875 2.140625 C 43.992188 2.140625 35.085938 -0.21875 27.578125 -4.9375 C 20.066406 -9.65625 14.304688 -16.304688 10.296875 -24.890625 C 6.296875 -33.484375 4.296875 -43.5 4.296875 -54.9375 C 4.296875 -66.101562 6.507812 -75.90625 10.9375 -84.34375 C 15.375 -92.789062 21.5625 -99.410156 29.5 -104.203125 C 37.445312 -108.992188 46.644531 -111.390625 57.09375 -111.390625 C 61.664062 -111.390625 66.742188 -110.53125 72.328125 -108.8125 C 77.910156 -107.09375 83.0625 -104.375 87.78125 -100.65625 C 88.351562 -103.226562 89.640625 -105.300781 91.640625 -106.875 C 93.648438 -108.457031 96.367188 -109.25 99.796875 -109.25 Z M 56.875 -19.53125 C 63.164062 -19.53125 69.242188 -20.925781 75.109375 -23.71875 C 80.984375 -26.507812 85.132812 -30.625 87.5625 -36.0625 L 87.5625 -73.1875 C 84.84375 -78.476562 80.765625 -82.554688 75.328125 -85.421875 C 69.890625 -88.285156 64.382812 -89.71875 58.8125 -89.71875 C 49.789062 -89.71875 42.523438 -86.425781 37.015625 -79.84375 C 31.515625 -73.257812 28.765625 -64.890625 28.765625 -54.734375 C 28.765625 -44.140625 31.335938 -35.625 36.484375 -29.1875 C 41.640625 -22.75 48.4375 -19.53125 56.875 -19.53125 Z M 56.875 -19.53125 "/></g></g></g><g fill="#ffffff" fill-opacity="1"><g transform="translate(598.291502, 204.160621)"><g><path d="M 72.328125 -111.390625 C 82.347656 -111.390625 90.863281 -109.207031 97.875 -104.84375 C 104.882812 -100.476562 110.25 -94.429688 113.96875 -86.703125 C 117.6875 -78.984375 119.546875 -69.972656 119.546875 -59.671875 L 119.546875 -11.15625 C 119.546875 -7.863281 118.472656 -5.179688 116.328125 -3.109375 C 114.179688 -1.035156 111.175781 0 107.3125 0 C 103.738281 0 100.804688 -1.035156 98.515625 -3.109375 C 96.222656 -5.179688 95.078125 -7.863281 95.078125 -11.15625 L 95.078125 -60.09375 C 95.078125 -68.96875 92.96875 -76.15625 88.75 -81.65625 C 84.53125 -87.164062 77.84375 -89.921875 68.6875 -89.921875 C 65.96875 -89.921875 62.710938 -89.171875 58.921875 -87.671875 C 55.128906 -86.171875 51.40625 -83.914062 47.75 -80.90625 C 44.101562 -77.90625 41.097656 -74.113281 38.734375 -69.53125 C 36.378906 -64.957031 35.203125 -59.523438 35.203125 -53.234375 L 35.203125 -10.953125 C 35.203125 -3.648438 31.265625 0 23.390625 0 C 19.671875 0 16.628906 -0.960938 14.265625 -2.890625 C 11.910156 -4.828125 10.734375 -7.515625 10.734375 -10.953125 L 10.734375 -98.296875 C 10.734375 -101.867188 11.984375 -104.585938 14.484375 -106.453125 C 16.992188 -108.316406 19.820312 -109.25 22.96875 -109.25 C 25.96875 -109.25 28.753906 -108.316406 31.328125 -106.453125 C 33.910156 -104.585938 35.203125 -102.015625 35.203125 -98.734375 L 35.203125 -97.21875 C 41.347656 -102.945312 47.710938 -106.738281 54.296875 -108.59375 C 60.878906 -110.457031 66.890625 -111.390625 72.328125 -111.390625 Z M 72.328125 -111.390625 "/></g></g></g><g fill="#ffffff" fill-opacity="1"><g transform="translate(728.553853, 204.160621)"><g><path d="M 100.015625 -138.859375 C 103.015625 -138.859375 105.835938 -138 108.484375 -136.28125 C 111.140625 -134.570312 112.46875 -131.851562 112.46875 -128.125 L 112.46875 -10.953125 C 112.46875 -3.648438 108.316406 0 100.015625 0 C 92.578125 0 88.710938 -3.429688 88.421875 -10.296875 C 83.847656 -6.296875 78.695312 -3.253906 72.96875 -1.171875 C 67.25 0.898438 61.8125 1.9375 56.65625 1.9375 C 45.925781 1.9375 36.660156 -0.492188 28.859375 -5.359375 C 21.066406 -10.222656 15.09375 -17.019531 10.9375 -25.75 C 6.789062 -34.476562 4.71875 -44.492188 4.71875 -55.796875 C 4.71875 -66.671875 6.9375 -76.257812 11.375 -84.5625 C 15.8125 -92.863281 22 -99.410156 29.9375 -104.203125 C 37.882812 -108.992188 47.078125 -111.390625 57.515625 -111.390625 C 62.242188 -111.390625 67.320312 -110.457031 72.75 -108.59375 C 78.1875 -106.738281 83.269531 -103.953125 88 -100.234375 L 88 -128.125 C 88 -131.851562 89.25 -134.570312 91.75 -136.28125 C 94.257812 -138 97.015625 -138.859375 100.015625 -138.859375 Z M 57.3125 -19.75 C 64.457031 -19.75 70.925781 -21.359375 76.71875 -24.578125 C 82.519531 -27.796875 86.421875 -32.476562 88.421875 -38.625 L 88.203125 -71.6875 C 85.773438 -77.550781 81.804688 -82.019531 76.296875 -85.09375 C 70.785156 -88.175781 65.097656 -89.71875 59.234375 -89.71875 C 50.222656 -89.71875 42.960938 -86.460938 37.453125 -79.953125 C 31.941406 -73.441406 29.1875 -65.320312 29.1875 -55.59375 C 29.1875 -45.144531 31.757812 -36.554688 36.90625 -29.828125 C 42.0625 -23.109375 48.863281 -19.75 57.3125 -19.75 Z M 57.3125 -19.75 "/></g></g></g><g fill="#ffffff" fill-opacity="1"><g transform="translate(852.807292, 204.160621)"><g><path d="M 61.375 -111.390625 C 72.820312 -111.390625 82.835938 -108.992188 91.421875 -104.203125 C 100.015625 -99.410156 106.671875 -92.71875 111.390625 -84.125 C 116.109375 -75.539062 118.46875 -65.523438 118.46875 -54.078125 C 118.332031 -42.921875 115.863281 -33.117188 111.0625 -24.671875 C 106.269531 -16.234375 99.617188 -9.65625 91.109375 -4.9375 C 82.597656 -0.21875 72.6875 2.140625 61.375 2.140625 C 50.21875 2.140625 40.347656 -0.21875 31.765625 -4.9375 C 23.179688 -9.65625 16.488281 -16.234375 11.6875 -24.671875 C 6.894531 -33.117188 4.429688 -42.921875 4.296875 -54.078125 C 4.296875 -65.523438 6.691406 -75.539062 11.484375 -84.125 C 16.273438 -92.71875 22.960938 -99.410156 31.546875 -104.203125 C 40.128906 -108.992188 50.070312 -111.390625 61.375 -111.390625 Z M 61.375 -19.3125 C 71.113281 -19.3125 78.878906 -22.53125 84.671875 -28.96875 C 90.460938 -35.40625 93.359375 -43.773438 93.359375 -54.078125 C 93.359375 -64.671875 90.460938 -73.289062 84.671875 -79.9375 C 78.878906 -86.59375 71.113281 -89.921875 61.375 -89.921875 C 51.789062 -89.921875 44.066406 -86.59375 38.203125 -79.9375 C 32.335938 -73.289062 29.40625 -64.671875 29.40625 -54.078125 C 29.40625 -43.773438 32.335938 -35.40625 38.203125 -28.96875 C 44.066406 -22.53125 51.789062 -19.3125 61.375 -19.3125 Z M 61.375 -19.3125 "/></g></g></g><g fill="#ffffff" fill-opacity="1"><g transform="translate(971.910315, 204.160621)"><g><path d="M 105.375 -109.25 C 109.101562 -109.25 112.109375 -108.101562 114.390625 -105.8125 C 116.679688 -103.519531 117.828125 -100.65625 117.828125 -97.21875 L 117.828125 -10.953125 C 117.828125 -7.367188 116.503906 -4.644531 113.859375 -2.78125 C 111.210938 -0.925781 108.457031 0 105.59375 0 C 102.445312 0 99.617188 -0.960938 97.109375 -2.890625 C 94.609375 -4.828125 93.359375 -7.582031 93.359375 -11.15625 L 93.359375 -12.015625 C 87.492188 -6.296875 81.410156 -2.503906 75.109375 -0.640625 C 68.816406 1.210938 62.953125 2.140625 57.515625 2.140625 C 42.640625 2.140625 31.050781 -2.539062 22.75 -11.90625 C 14.445312 -21.28125 10.296875 -33.976562 10.296875 -50 L 10.296875 -97.21875 C 10.296875 -100.507812 11.367188 -103.335938 13.515625 -105.703125 C 15.660156 -108.066406 18.664062 -109.25 22.53125 -109.25 C 26.25 -109.25 29.21875 -108.066406 31.4375 -105.703125 C 33.65625 -103.335938 34.765625 -100.507812 34.765625 -97.21875 L 34.765625 -49.578125 C 34.765625 -40.273438 36.875 -32.90625 41.09375 -27.46875 C 45.320312 -22.03125 52.015625 -19.3125 61.171875 -19.3125 C 63.890625 -19.3125 67.070312 -20.0625 70.71875 -21.5625 C 74.363281 -23.070312 77.90625 -25.328125 81.34375 -28.328125 C 84.78125 -31.335938 87.640625 -35.164062 89.921875 -39.8125 C 92.210938 -44.457031 93.359375 -49.929688 93.359375 -56.234375 L 93.359375 -97.21875 C 93.359375 -100.65625 94.359375 -103.519531 96.359375 -105.8125 C 98.367188 -108.101562 101.375 -109.25 105.375 -109.25 Z M 105.375 -109.25 "/></g></g></g></g></g><path fill="#f66b0e" d="M 1294.738281 542.558594 C 1301.386719 542.558594 1307.082031 548.730469 1307.082031 554.90625 C 1307.5625 561.082031 1301.386719 567.257812 1294.738281 567.257812 C 1288.089844 567.257812 1282.386719 561.554688 1282.386719 554.90625 C 1282.386719 548.257812 1288.089844 542.558594 1294.738281 542.558594 " fill-opacity="1" fill-rule="nonzero"/><path fill="#f66b0e" d="M 1232.523438 554.433594 C 1232.523438 547.785156 1238.226562 542.082031 1244.394531 542.082031 C 1251.523438 542.082031 1256.746094 547.308594 1256.746094 554.433594 C 1256.273438 562.027344 1251.042969 567.257812 1244.394531 567.257812 C 1237.746094 567.257812 1232.050781 561.554688 1232.523438 554.433594 " fill-opacity="1" fill-rule="nonzero"/><path fill="#f66b0e" d="M 1193.585938 542.558594 C 1200.234375 542.558594 1205.929688 548.730469 1205.929688 554.90625 C 1206.402344 561.082031 1200.234375 567.257812 1193.585938 567.257812 C 1186.929688 567.257812 1181.234375 561.554688 1181.234375 554.90625 C 1181.234375 548.257812 1186.929688 542.558594 1193.585938 542.558594 " fill-opacity="1" fill-rule="nonzero"/><g clip-path="url(#7c6b2a805d)"><path fill="#f66b0e" d="M 1331.390625 641.953125 L 1296.019531 608.074219 C 1294.292969 606.40625 1292.007812 605.480469 1289.628906 605.480469 L 1172.386719 605.480469 C 1163.902344 605.480469 1156.960938 598.566406 1156.960938 590.046875 L 1156.960938 504.097656 L 1331.390625 504.097656 Z M 1165.507812 467.839844 C 1170.292969 467.839844 1174.175781 471.730469 1174.175781 476.511719 C 1174.175781 481.257812 1170.292969 485.148438 1165.507812 485.148438 C 1160.722656 485.148438 1156.832031 481.257812 1156.832031 476.511719 C 1156.832031 471.730469 1160.722656 467.839844 1165.507812 467.839844 Z M 1198.40625 467.839844 C 1203.191406 467.839844 1207.074219 471.730469 1207.074219 476.511719 C 1207.074219 481.257812 1203.191406 485.148438 1198.40625 485.148438 C 1193.648438 485.148438 1189.765625 481.257812 1189.765625 476.511719 C 1189.765625 471.730469 1193.648438 467.839844 1198.40625 467.839844 Z M 1231.332031 467.839844 C 1236.089844 467.839844 1239.972656 471.730469 1239.972656 476.511719 C 1239.972656 481.257812 1236.089844 485.148438 1231.332031 485.148438 C 1226.546875 485.148438 1222.664062 481.257812 1222.664062 476.511719 C 1222.664062 471.730469 1226.546875 467.839844 1231.332031 467.839844 Z M 1315.957031 449.164062 L 1172.386719 449.164062 C 1153.6875 449.164062 1138.441406 464.378906 1138.441406 483.117188 L 1138.441406 590.046875 C 1138.441406 608.78125 1153.6875 623.992188 1172.386719 623.992188 L 1285.894531 623.992188 L 1334.226562 670.351562 C 1335.980469 672.050781 1338.296875 672.945312 1340.644531 672.945312 C 1341.847656 672.945312 1343.109375 672.695312 1344.253906 672.199219 C 1347.679688 670.753906 1349.902344 667.386719 1349.902344 663.683594 L 1349.902344 483.117188 C 1349.902344 464.378906 1334.65625 449.164062 1315.957031 449.164062 " fill-opacity="1" fill-rule="nonzero"/></g><g transform="matrix(1, 0, 0, 1, 460, 830)"><g clip-path="url(#f26e8241e2)"><g fill="#ffffff" fill-opacity="1"><g transform="translate(3.478138, 73.077022)"><g><path d="M 8.578125 -27 C 9.609375 -29.976562 11.484375 -32.410156 14.203125 -34.296875 C 16.929688 -36.191406 20.234375 -37.140625 24.109375 -37.140625 C 27.523438 -37.140625 30.570312 -36.375 33.25 -34.84375 C 35.925781 -33.3125 38.019531 -31.125 39.53125 -28.28125 C 41.039062 -25.445312 41.796875 -22.140625 41.796875 -18.359375 C 41.796875 -14.578125 41.039062 -11.257812 39.53125 -8.40625 C 38.019531 -5.550781 35.925781 -3.34375 33.25 -1.78125 C 30.570312 -0.226562 27.523438 0.546875 24.109375 0.546875 C 20.273438 0.546875 16.992188 -0.410156 14.265625 -2.328125 C 11.546875 -4.242188 9.648438 -6.664062 8.578125 -9.59375 L 8.578125 17.28125 L 5.53125 17.28125 L 5.53125 -36.65625 L 8.578125 -36.65625 Z M 38.6875 -18.359375 C 38.6875 -21.691406 38.054688 -24.570312 36.796875 -27 C 35.535156 -29.4375 33.769531 -31.296875 31.5 -32.578125 C 29.226562 -33.859375 26.601562 -34.5 23.625 -34.5 C 20.789062 -34.5 18.222656 -33.832031 15.921875 -32.5 C 13.628906 -31.175781 11.832031 -29.285156 10.53125 -26.828125 C 9.226562 -24.378906 8.578125 -21.554688 8.578125 -18.359375 C 8.578125 -15.117188 9.226562 -12.269531 10.53125 -9.8125 C 11.832031 -7.363281 13.628906 -5.472656 15.921875 -4.140625 C 18.222656 -2.816406 20.789062 -2.15625 23.625 -2.15625 C 26.601562 -2.15625 29.226562 -2.804688 31.5 -4.109375 C 33.769531 -5.421875 35.535156 -7.289062 36.796875 -9.71875 C 38.054688 -12.15625 38.6875 -15.035156 38.6875 -18.359375 Z M 38.6875 -18.359375 "/></g></g></g><g fill="#ffffff" fill-opacity="1"><g transform="translate(46.34746, 73.077022)"><g><path d="M 38.546875 -20.796875 C 38.546875 -19.171875 38.503906 -17.957031 38.421875 -17.15625 L 6.75 -17.15625 C 6.84375 -13.863281 7.5625 -11.09375 8.90625 -8.84375 C 10.257812 -6.59375 12.035156 -4.90625 14.234375 -3.78125 C 16.441406 -2.65625 18.851562 -2.09375 21.46875 -2.09375 C 25.070312 -2.09375 28.085938 -2.976562 30.515625 -4.75 C 32.941406 -6.53125 34.472656 -8.953125 35.109375 -12.015625 L 38.28125 -12.015625 C 37.5625 -8.273438 35.710938 -5.242188 32.734375 -2.921875 C 29.765625 -0.609375 26.007812 0.546875 21.46875 0.546875 C 18.050781 0.546875 14.988281 -0.21875 12.28125 -1.75 C 9.582031 -3.28125 7.46875 -5.472656 5.9375 -8.328125 C 4.40625 -11.191406 3.640625 -14.535156 3.640625 -18.359375 C 3.640625 -22.191406 4.394531 -25.523438 5.90625 -28.359375 C 7.414062 -31.191406 9.519531 -33.363281 12.21875 -34.875 C 14.914062 -36.382812 18 -37.140625 21.46875 -37.140625 C 24.976562 -37.140625 28.023438 -36.382812 30.609375 -34.875 C 33.203125 -33.363281 35.171875 -31.359375 36.515625 -28.859375 C 37.867188 -26.359375 38.546875 -23.671875 38.546875 -20.796875 Z M 35.515625 -19.640625 C 35.648438 -22.890625 35.078125 -25.640625 33.796875 -27.890625 C 32.515625 -30.140625 30.769531 -31.8125 28.5625 -32.90625 C 26.351562 -34.007812 23.96875 -34.5625 21.40625 -34.5625 C 18.832031 -34.5625 16.453125 -34.007812 14.265625 -32.90625 C 12.085938 -31.8125 10.3125 -30.140625 8.9375 -27.890625 C 7.570312 -25.640625 6.84375 -22.890625 6.75 -19.640625 Z M 35.515625 -19.640625 "/></g></g></g><g fill="#ffffff" fill-opacity="1"><g transform="translate(85.976207, 73.077022)"><g><path d="M 21.671875 0.546875 C 18.253906 0.546875 15.171875 -0.21875 12.421875 -1.75 C 9.671875 -3.28125 7.519531 -5.472656 5.96875 -8.328125 C 4.414062 -11.191406 3.640625 -14.535156 3.640625 -18.359375 C 3.640625 -22.140625 4.425781 -25.457031 6 -28.3125 C 7.582031 -31.175781 9.753906 -33.363281 12.515625 -34.875 C 15.285156 -36.382812 18.382812 -37.140625 21.8125 -37.140625 C 25.226562 -37.140625 28.304688 -36.382812 31.046875 -34.875 C 33.796875 -33.363281 35.945312 -31.191406 37.5 -28.359375 C 39.050781 -25.523438 39.828125 -22.191406 39.828125 -18.359375 C 39.828125 -14.535156 39.039062 -11.191406 37.46875 -8.328125 C 35.894531 -5.472656 33.722656 -3.28125 30.953125 -1.75 C 28.179688 -0.21875 25.085938 0.546875 21.671875 0.546875 Z M 21.671875 -2.15625 C 24.328125 -2.15625 26.8125 -2.75 29.125 -3.9375 C 31.445312 -5.132812 33.304688 -6.945312 34.703125 -9.375 C 36.097656 -11.8125 36.796875 -14.804688 36.796875 -18.359375 C 36.796875 -21.867188 36.097656 -24.835938 34.703125 -27.265625 C 33.304688 -29.703125 31.457031 -31.515625 29.15625 -32.703125 C 26.863281 -33.898438 24.390625 -34.5 21.734375 -34.5 C 19.078125 -34.5 16.613281 -33.898438 14.34375 -32.703125 C 12.070312 -31.515625 10.238281 -29.703125 8.84375 -27.265625 C 7.445312 -24.835938 6.75 -21.867188 6.75 -18.359375 C 6.75 -14.804688 7.4375 -11.8125 8.8125 -9.375 C 10.1875 -6.945312 12.007812 -5.132812 14.28125 -3.9375 C 16.550781 -2.75 19.015625 -2.15625 21.671875 -2.15625 Z M 21.671875 -2.15625 "/></g></g></g><g fill="#ffffff" fill-opacity="1"><g transform="translate(126.955159, 73.077022)"><g><path d="M 8.578125 -27 C 9.609375 -29.976562 11.484375 -32.410156 14.203125 -34.296875 C 16.929688 -36.191406 20.234375 -37.140625 24.109375 -37.140625 C 27.523438 -37.140625 30.570312 -36.375 33.25 -34.84375 C 35.925781 -33.3125 38.019531 -31.125 39.53125 -28.28125 C 41.039062 -25.445312 41.796875 -22.140625 41.796875 -18.359375 C 41.796875 -14.578125 41.039062 -11.257812 39.53125 -8.40625 C 38.019531 -5.550781 35.925781 -3.34375 33.25 -1.78125 C 30.570312 -0.226562 27.523438 0.546875 24.109375 0.546875 C 20.273438 0.546875 16.992188 -0.410156 14.265625 -2.328125 C 11.546875 -4.242188 9.648438 -6.664062 8.578125 -9.59375 L 8.578125 17.28125 L 5.53125 17.28125 L 5.53125 -36.65625 L 8.578125 -36.65625 Z M 38.6875 -18.359375 C 38.6875 -21.691406 38.054688 -24.570312 36.796875 -27 C 35.535156 -29.4375 33.769531 -31.296875 31.5 -32.578125 C 29.226562 -33.859375 26.601562 -34.5 23.625 -34.5 C 20.789062 -34.5 18.222656 -33.832031 15.921875 -32.5 C 13.628906 -31.175781 11.832031 -29.285156 10.53125 -26.828125 C 9.226562 -24.378906 8.578125 -21.554688 8.578125 -18.359375 C 8.578125 -15.117188 9.226562 -12.269531 10.53125 -9.8125 C 11.832031 -7.363281 13.628906 -5.472656 15.921875 -4.140625 C 18.222656 -2.816406 20.789062 -2.15625 23.625 -2.15625 C 26.601562 -2.15625 29.226562 -2.804688 31.5 -4.109375 C 33.769531 -5.421875 35.535156 -7.289062 36.796875 -9.71875 C 38.054688 -12.15625 38.6875 -15.035156 38.6875 -18.359375 Z M 38.6875 -18.359375 "/></g></g></g><g fill="#ffffff" fill-opacity="1"><g transform="translate(169.824481, 73.077022)"><g><path d="M 8.578125 -49.96875 L 8.578125 0 L 5.53125 0 L 5.53125 -49.96875 Z M 8.578125 -49.96875 "/></g></g></g><g fill="#ffffff" fill-opacity="1"><g transform="translate(181.43584, 73.077022)"><g><path d="M 38.546875 -20.796875 C 38.546875 -19.171875 38.503906 -17.957031 38.421875 -17.15625 L 6.75 -17.15625 C 6.84375 -13.863281 7.5625 -11.09375 8.90625 -8.84375 C 10.257812 -6.59375 12.035156 -4.90625 14.234375 -3.78125 C 16.441406 -2.65625 18.851562 -2.09375 21.46875 -2.09375 C 25.070312 -2.09375 28.085938 -2.976562 30.515625 -4.75 C 32.941406 -6.53125 34.472656 -8.953125 35.109375 -12.015625 L 38.28125 -12.015625 C 37.5625 -8.273438 35.710938 -5.242188 32.734375 -2.921875 C 29.765625 -0.609375 26.007812 0.546875 21.46875 0.546875 C 18.050781 0.546875 14.988281 -0.21875 12.28125 -1.75 C 9.582031 -3.28125 7.46875 -5.472656 5.9375 -8.328125 C 4.40625 -11.191406 3.640625 -14.535156 3.640625 -18.359375 C 3.640625 -22.191406 4.394531 -25.523438 5.90625 -28.359375 C 7.414062 -31.191406 9.519531 -33.363281 12.21875 -34.875 C 14.914062 -36.382812 18 -37.140625 21.46875 -37.140625 C 24.976562 -37.140625 28.023438 -36.382812 30.609375 -34.875 C 33.203125 -33.363281 35.171875 -31.359375 36.515625 -28.859375 C 37.867188 -26.359375 38.546875 -23.671875 38.546875 -20.796875 Z M 35.515625 -19.640625 C 35.648438 -22.890625 35.078125 -25.640625 33.796875 -27.890625 C 32.515625 -30.140625 30.769531 -31.8125 28.5625 -32.90625 C 26.351562 -34.007812 23.96875 -34.5625 21.40625 -34.5625 C 18.832031 -34.5625 16.453125 -34.007812 14.265625 -32.90625 C 12.085938 -31.8125 10.3125 -30.140625 8.9375 -27.890625 C 7.570312 -25.640625 6.84375 -22.890625 6.75 -19.640625 Z M 35.515625 -19.640625 "/></g></g></g><g fill="#ffffff" fill-opacity="1"><g transform="translate(221.064587, 73.077022)"><g/></g></g><g fill="#ffffff" fill-opacity="1"><g transform="translate(237.536809, 73.077022)"><g><path d="M 3.640625 -18.359375 C 3.640625 -22.140625 4.394531 -25.445312 5.90625 -28.28125 C 7.414062 -31.125 9.507812 -33.3125 12.1875 -34.84375 C 14.863281 -36.375 17.910156 -37.140625 21.328125 -37.140625 C 25.203125 -37.140625 28.488281 -36.191406 31.1875 -34.296875 C 33.894531 -32.410156 35.785156 -30.003906 36.859375 -27.078125 L 36.859375 -36.65625 L 39.90625 -36.65625 L 39.90625 0 L 36.859375 0 L 36.859375 -9.65625 C 35.785156 -6.6875 33.882812 -4.242188 31.15625 -2.328125 C 28.4375 -0.410156 25.160156 0.546875 21.328125 0.546875 C 17.910156 0.546875 14.863281 -0.226562 12.1875 -1.78125 C 9.507812 -3.34375 7.414062 -5.550781 5.90625 -8.40625 C 4.394531 -11.257812 3.640625 -14.578125 3.640625 -18.359375 Z M 36.859375 -18.359375 C 36.859375 -21.554688 36.191406 -24.378906 34.859375 -26.828125 C 33.535156 -29.285156 31.726562 -31.175781 29.4375 -32.5 C 27.144531 -33.832031 24.578125 -34.5 21.734375 -34.5 C 18.765625 -34.5 16.15625 -33.859375 13.90625 -32.578125 C 11.65625 -31.296875 9.898438 -29.4375 8.640625 -27 C 7.378906 -24.570312 6.75 -21.691406 6.75 -18.359375 C 6.75 -15.035156 7.378906 -12.15625 8.640625 -9.71875 C 9.898438 -7.289062 11.664062 -5.421875 13.9375 -4.109375 C 16.207031 -2.804688 18.804688 -2.15625 21.734375 -2.15625 C 24.578125 -2.15625 27.15625 -2.816406 29.46875 -4.140625 C 31.789062 -5.472656 33.601562 -7.363281 34.90625 -9.8125 C 36.207031 -12.269531 36.859375 -15.117188 36.859375 -18.359375 Z M 36.859375 -18.359375 "/></g></g></g><g fill="#ffffff" fill-opacity="1"><g transform="translate(280.406131, 73.077022)"><g><path d="M 22.078125 -37.40625 C 26.441406 -37.40625 29.992188 -36.066406 32.734375 -33.390625 C 35.484375 -30.710938 36.859375 -26.738281 36.859375 -21.46875 L 36.859375 0 L 33.890625 0 L 33.890625 -21.265625 C 33.890625 -25.628906 32.785156 -28.96875 30.578125 -31.28125 C 28.378906 -33.601562 25.390625 -34.765625 21.609375 -34.765625 C 17.640625 -34.765625 14.472656 -33.503906 12.109375 -30.984375 C 9.753906 -28.460938 8.578125 -24.726562 8.578125 -19.78125 L 8.578125 0 L 5.53125 0 L 5.53125 -36.65625 L 8.578125 -36.65625 L 8.578125 -28.890625 C 9.609375 -31.640625 11.328125 -33.742188 13.734375 -35.203125 C 16.140625 -36.671875 18.921875 -37.40625 22.078125 -37.40625 Z M 22.078125 -37.40625 "/></g></g></g><g fill="#ffffff" fill-opacity="1"><g transform="translate(319.899863, 73.077022)"><g><path d="M 3.640625 -18.359375 C 3.640625 -22.140625 4.394531 -25.445312 5.90625 -28.28125 C 7.414062 -31.125 9.507812 -33.3125 12.1875 -34.84375 C 14.863281 -36.375 17.910156 -37.140625 21.328125 -37.140625 C 25.066406 -37.140625 28.304688 -36.203125 31.046875 -34.328125 C 33.796875 -32.460938 35.734375 -30.046875 36.859375 -27.078125 L 36.859375 -49.96875 L 39.90625 -49.96875 L 39.90625 0 L 36.859375 0 L 36.859375 -9.71875 C 35.785156 -6.707031 33.894531 -4.242188 31.1875 -2.328125 C 28.488281 -0.410156 25.203125 0.546875 21.328125 0.546875 C 17.910156 0.546875 14.863281 -0.226562 12.1875 -1.78125 C 9.507812 -3.34375 7.414062 -5.550781 5.90625 -8.40625 C 4.394531 -11.257812 3.640625 -14.578125 3.640625 -18.359375 Z M 36.859375 -18.359375 C 36.859375 -21.554688 36.191406 -24.378906 34.859375 -26.828125 C 33.535156 -29.285156 31.726562 -31.175781 29.4375 -32.5 C 27.144531 -33.832031 24.578125 -34.5 21.734375 -34.5 C 18.765625 -34.5 16.15625 -33.859375 13.90625 -32.578125 C 11.65625 -31.296875 9.898438 -29.4375 8.640625 -27 C 7.378906 -24.570312 6.75 -21.691406 6.75 -18.359375 C 6.75 -15.035156 7.378906 -12.15625 8.640625 -9.71875 C 9.898438 -7.289062 11.664062 -5.421875 13.9375 -4.109375 C 16.207031 -2.804688 18.804688 -2.15625 21.734375 -2.15625 C 24.578125 -2.15625 27.15625 -2.816406 29.46875 -4.140625 C 31.789062 -5.472656 33.601562 -7.363281 34.90625 -9.8125 C 36.207031 -12.269531 36.859375 -15.117188 36.859375 -18.359375 Z M 36.859375 -18.359375 "/></g></g></g><g fill="#ffffff" fill-opacity="1"><g transform="translate(362.769185, 73.077022)"><g/></g></g><g fill="#ffffff" fill-opacity="1"><g transform="translate(379.241406, 73.077022)"><g><path d="M 8.578125 -29.09375 C 9.472656 -31.800781 11.066406 -33.863281 13.359375 -35.28125 C 15.660156 -36.695312 18.585938 -37.40625 22.140625 -37.40625 L 22.140625 -34.234375 L 21.125 -34.234375 C 17.53125 -34.234375 14.539062 -33.207031 12.15625 -31.15625 C 9.769531 -29.113281 8.578125 -25.769531 8.578125 -21.125 L 8.578125 0 L 5.53125 0 L 5.53125 -36.65625 L 8.578125 -36.65625 Z M 8.578125 -29.09375 "/></g></g></g><g fill="#ffffff" fill-opacity="1"><g transform="translate(400.304407, 73.077022)"><g><path d="M 38.546875 -20.796875 C 38.546875 -19.171875 38.503906 -17.957031 38.421875 -17.15625 L 6.75 -17.15625 C 6.84375 -13.863281 7.5625 -11.09375 8.90625 -8.84375 C 10.257812 -6.59375 12.035156 -4.90625 14.234375 -3.78125 C 16.441406 -2.65625 18.851562 -2.09375 21.46875 -2.09375 C 25.070312 -2.09375 28.085938 -2.976562 30.515625 -4.75 C 32.941406 -6.53125 34.472656 -8.953125 35.109375 -12.015625 L 38.28125 -12.015625 C 37.5625 -8.273438 35.710938 -5.242188 32.734375 -2.921875 C 29.765625 -0.609375 26.007812 0.546875 21.46875 0.546875 C 18.050781 0.546875 14.988281 -0.21875 12.28125 -1.75 C 9.582031 -3.28125 7.46875 -5.472656 5.9375 -8.328125 C 4.40625 -11.191406 3.640625 -14.535156 3.640625 -18.359375 C 3.640625 -22.191406 4.394531 -25.523438 5.90625 -28.359375 C 7.414062 -31.191406 9.519531 -33.363281 12.21875 -34.875 C 14.914062 -36.382812 18 -37.140625 21.46875 -37.140625 C 24.976562 -37.140625 28.023438 -36.382812 30.609375 -34.875 C 33.203125 -33.363281 35.171875 -31.359375 36.515625 -28.859375 C 37.867188 -26.359375 38.546875 -23.671875 38.546875 -20.796875 Z M 35.515625 -19.640625 C 35.648438 -22.890625 35.078125 -25.640625 33.796875 -27.890625 C 32.515625 -30.140625 30.769531 -31.8125 28.5625 -32.90625 C 26.351562 -34.007812 23.96875 -34.5625 21.40625 -34.5625 C 18.832031 -34.5625 16.453125 -34.007812 14.265625 -32.90625 C 12.085938 -31.8125 10.3125 -30.140625 8.9375 -27.890625 C 7.570312 -25.640625 6.84375 -22.890625 6.75 -19.640625 Z M 35.515625 -19.640625 "/></g></g></g><g fill="#ffffff" fill-opacity="1"><g transform="translate(439.933155, 73.077022)"><g><path d="M 17.75 0.546875 C 13.65625 0.546875 10.3125 -0.351562 7.71875 -2.15625 C 5.132812 -3.957031 3.6875 -6.523438 3.375 -9.859375 L 6.484375 -9.859375 C 6.703125 -7.472656 7.789062 -5.582031 9.75 -4.1875 C 11.707031 -2.789062 14.375 -2.09375 17.75 -2.09375 C 20.539062 -2.09375 22.757812 -2.800781 24.40625 -4.21875 C 26.050781 -5.632812 26.875 -7.378906 26.875 -9.453125 C 26.875 -10.890625 26.429688 -12.066406 25.546875 -12.984375 C 24.671875 -13.910156 23.582031 -14.617188 22.28125 -15.109375 C 20.976562 -15.609375 19.203125 -16.15625 16.953125 -16.75 C 14.242188 -17.46875 12.054688 -18.175781 10.390625 -18.875 C 8.734375 -19.570312 7.316406 -20.617188 6.140625 -22.015625 C 4.972656 -23.410156 4.390625 -25.273438 4.390625 -27.609375 C 4.390625 -29.316406 4.90625 -30.898438 5.9375 -32.359375 C 6.976562 -33.828125 8.421875 -34.988281 10.265625 -35.84375 C 12.109375 -36.707031 14.203125 -37.140625 16.546875 -37.140625 C 20.367188 -37.140625 23.460938 -36.179688 25.828125 -34.265625 C 28.191406 -32.347656 29.460938 -29.703125 29.640625 -26.328125 L 26.59375 -26.328125 C 26.46875 -28.765625 25.523438 -30.742188 23.765625 -32.265625 C 22.003906 -33.796875 19.570312 -34.5625 16.46875 -34.5625 C 13.863281 -34.5625 11.703125 -33.882812 9.984375 -32.53125 C 8.273438 -31.1875 7.421875 -29.546875 7.421875 -27.609375 C 7.421875 -25.898438 7.90625 -24.515625 8.875 -23.453125 C 9.84375 -22.398438 11.035156 -21.59375 12.453125 -21.03125 C 13.867188 -20.46875 15.75 -19.867188 18.09375 -19.234375 C 20.65625 -18.566406 22.710938 -17.90625 24.265625 -17.25 C 25.816406 -16.59375 27.132812 -15.644531 28.21875 -14.40625 C 29.300781 -13.175781 29.84375 -11.523438 29.84375 -9.453125 C 29.84375 -7.554688 29.320312 -5.84375 28.28125 -4.3125 C 27.25 -2.789062 25.8125 -1.597656 23.96875 -0.734375 C 22.125 0.117188 20.050781 0.546875 17.75 0.546875 Z M 17.75 0.546875 "/></g></g></g><g fill="#ffffff" fill-opacity="1"><g transform="translate(470.920403, 73.077022)"><g><path d="M 36.53125 -36.65625 L 36.53125 0 L 33.484375 0 L 33.484375 -7.96875 C 32.453125 -5.175781 30.726562 -3.046875 28.3125 -1.578125 C 25.90625 -0.117188 23.148438 0.609375 20.046875 0.609375 C 15.679688 0.609375 12.113281 -0.726562 9.34375 -3.40625 C 6.582031 -6.082031 5.203125 -10.054688 5.203125 -15.328125 L 5.203125 -36.65625 L 8.171875 -36.65625 L 8.171875 -15.53125 C 8.171875 -11.164062 9.269531 -7.820312 11.46875 -5.5 C 13.675781 -3.1875 16.671875 -2.03125 20.453125 -2.03125 C 24.421875 -2.03125 27.582031 -3.289062 29.9375 -5.8125 C 32.300781 -8.332031 33.484375 -12.066406 33.484375 -17.015625 L 33.484375 -36.65625 Z M 36.53125 -36.65625 "/></g></g></g><g fill="#ffffff" fill-opacity="1"><g transform="translate(510.414135, 73.077022)"><g><path d="M 8.578125 -49.96875 L 8.578125 0 L 5.53125 0 L 5.53125 -49.96875 Z M 8.578125 -49.96875 "/></g></g></g><g fill="#ffffff" fill-opacity="1"><g transform="translate(522.025494, 73.077022)"><g><path d="M 10.0625 -34.03125 L 10.0625 -9.796875 C 10.0625 -7.085938 10.554688 -5.226562 11.546875 -4.21875 C 12.535156 -3.207031 14.289062 -2.703125 16.8125 -2.703125 L 20.9375 -2.703125 L 20.9375 0 L 16.34375 0 C 13.144531 0 10.789062 -0.753906 9.28125 -2.265625 C 7.769531 -3.773438 7.015625 -6.285156 7.015625 -9.796875 L 7.015625 -34.03125 L 1.484375 -34.03125 L 1.484375 -36.65625 L 7.015625 -36.65625 L 7.015625 -45.984375 L 10.0625 -45.984375 L 10.0625 -36.65625 L 20.9375 -36.65625 L 20.9375 -34.03125 Z M 10.0625 -34.03125 "/></g></g></g><g fill="#ffffff" fill-opacity="1"><g transform="translate(542.885973, 73.077022)"><g><path d="M 17.75 0.546875 C 13.65625 0.546875 10.3125 -0.351562 7.71875 -2.15625 C 5.132812 -3.957031 3.6875 -6.523438 3.375 -9.859375 L 6.484375 -9.859375 C 6.703125 -7.472656 7.789062 -5.582031 9.75 -4.1875 C 11.707031 -2.789062 14.375 -2.09375 17.75 -2.09375 C 20.539062 -2.09375 22.757812 -2.800781 24.40625 -4.21875 C 26.050781 -5.632812 26.875 -7.378906 26.875 -9.453125 C 26.875 -10.890625 26.429688 -12.066406 25.546875 -12.984375 C 24.671875 -13.910156 23.582031 -14.617188 22.28125 -15.109375 C 20.976562 -15.609375 19.203125 -16.15625 16.953125 -16.75 C 14.242188 -17.46875 12.054688 -18.175781 10.390625 -18.875 C 8.734375 -19.570312 7.316406 -20.617188 6.140625 -22.015625 C 4.972656 -23.410156 4.390625 -25.273438 4.390625 -27.609375 C 4.390625 -29.316406 4.90625 -30.898438 5.9375 -32.359375 C 6.976562 -33.828125 8.421875 -34.988281 10.265625 -35.84375 C 12.109375 -36.707031 14.203125 -37.140625 16.546875 -37.140625 C 20.367188 -37.140625 23.460938 -36.179688 25.828125 -34.265625 C 28.191406 -32.347656 29.460938 -29.703125 29.640625 -26.328125 L 26.59375 -26.328125 C 26.46875 -28.765625 25.523438 -30.742188 23.765625 -32.265625 C 22.003906 -33.796875 19.570312 -34.5625 16.46875 -34.5625 C 13.863281 -34.5625 11.703125 -33.882812 9.984375 -32.53125 C 8.273438 -31.1875 7.421875 -29.546875 7.421875 -27.609375 C 7.421875 -25.898438 7.90625 -24.515625 8.875 -23.453125 C 9.84375 -22.398438 11.035156 -21.59375 12.453125 -21.03125 C 13.867188 -20.46875 15.75 -19.867188 18.09375 -19.234375 C 20.65625 -18.566406 22.710938 -17.90625 24.265625 -17.25 C 25.816406 -16.59375 27.132812 -15.644531 28.21875 -14.40625 C 29.300781 -13.175781 29.84375 -11.523438 29.84375 -9.453125 C 29.84375 -7.554688 29.320312 -5.84375 28.28125 -4.3125 C 27.25 -2.789062 25.8125 -1.597656 23.96875 -0.734375 C 22.125 0.117188 20.050781 0.546875 17.75 0.546875 Z M 17.75 0.546875 "/></g></g></g></g></g></svg>