<svg xmlns="http://www.w3.org/2000/svg" xmlns:xlink="http://www.w3.org/1999/xlink" width="2000" zoomAndPan="magnify" viewBox="0 0 1500 1499.999933" height="2000" preserveAspectRatio="xMidYMid meet" version="1.0"><defs><clipPath id="38972b3abe"><path d="M 117.398438 117.398438 L 1382.644531 117.398438 L 1382.644531 1382.644531 L 117.398438 1382.644531 Z M 117.398438 117.398438 " clip-rule="nonzero"/></clipPath><clipPath id="14b30c6981"><path d="M 441 423 L 1059 423 L 1059 1077 L 441 1077 Z M 441 423 " clip-rule="nonzero"/></clipPath><clipPath id="300827260e"><path d="M 1050.746094 1076.382812 L 441.789062 1069.125 L 449.484375 423.417969 L 1058.441406 430.679688 Z M 1050.746094 1076.382812 " clip-rule="nonzero"/></clipPath><clipPath id="d2ad1fc26a"><path d="M 418 310 L 490 310 L 490 383 L 418 383 Z M 418 310 " clip-rule="nonzero"/></clipPath><clipPath id="96592357d6"><path d="M 609.746094 653.382812 L 0.789062 646.125 L 8.484375 0.417969 L 617.441406 7.679688 Z M 609.746094 653.382812 " clip-rule="nonzero"/></clipPath><clipPath id="75a6e4dab2"><path d="M 0.554688 646.121094 L 609.511719 653.378906 L 617.207031 7.675781 L 8.25 0.417969 Z M 0.554688 646.121094 " clip-rule="nonzero"/></clipPath><clipPath id="68060e17cb"><path d="M 274 309 L 345 309 L 345 382 L 274 382 Z M 274 309 " clip-rule="nonzero"/></clipPath><clipPath id="0cb8321bff"><path d="M 609.746094 653.382812 L 0.789062 646.125 L 8.484375 0.417969 L 617.441406 7.679688 Z M 609.746094 653.382812 " clip-rule="nonzero"/></clipPath><clipPath id="5c534eab85"><path d="M 0.554688 646.121094 L 609.511719 653.378906 L 617.207031 7.675781 L 8.25 0.417969 Z M 0.554688 646.121094 " clip-rule="nonzero"/></clipPath><clipPath id="bf02f3fb50"><path d="M 127 307 L 199 307 L 199 379 L 127 379 Z M 127 307 " clip-rule="nonzero"/></clipPath><clipPath id="a52a3c7f85"><path d="M 609.746094 653.382812 L 0.789062 646.125 L 8.484375 0.417969 L 617.441406 7.679688 Z M 609.746094 653.382812 " clip-rule="nonzero"/></clipPath><clipPath id="eedc1072c9"><path d="M 0.554688 646.121094 L 609.511719 653.378906 L 617.207031 7.675781 L 8.25 0.417969 Z M 0.554688 646.121094 " clip-rule="nonzero"/></clipPath><clipPath id="1330ad2d1e"><path d="M 1 7 L 617 7 L 617 652 L 1 652 Z M 1 7 " clip-rule="nonzero"/></clipPath><clipPath id="0cc6120917"><path d="M 609.746094 653.382812 L 0.789062 646.125 L 8.484375 0.417969 L 617.441406 7.679688 Z M 609.746094 653.382812 " clip-rule="nonzero"/></clipPath><clipPath id="4aec3cd98d"><path d="M 0.554688 646.121094 L 609.511719 653.378906 L 617.207031 7.675781 L 8.25 0.417969 Z M 0.554688 646.121094 " clip-rule="nonzero"/></clipPath><clipPath id="90d8b5af01"><rect x="0" width="618" y="0" height="654"/></clipPath></defs><rect x="-150" width="1800" fill="#ffffff" y="-149.999993" height="1799.99992" fill-opacity="1"/><rect x="-150" width="1800" fill="#373643" y="-149.999993" height="1799.99992" fill-opacity="1"/><g clip-path="url(#38972b3abe)"><path fill="#ffffff" d="M 523.675781 1340.582031 C 444.855469 1310.441406 372.988281 1265.238281 311.554688 1206.121094 C 250.117188 1147.003906 202.015625 1077.457031 168.398438 999.792969 C 135.941406 924.449219 119.136719 845.046875 117.398438 762.75 C 115.65625 680.449219 129.566406 600.46875 159.125 523.964844 C 189.261719 445.144531 234.46875 373.277344 293.585938 311.84375 C 352.703125 250.40625 422.25 202.304688 499.914062 168.6875 C 575.257812 136.234375 654.660156 119.425781 736.957031 117.6875 C 819.257812 115.949219 899.238281 129.855469 975.742188 159.414062 C 1054.5625 189.554688 1126.429688 234.757812 1187.863281 293.875 C 1249.296875 352.992188 1297.402344 422.539062 1331.019531 500.203125 C 1363.472656 575.546875 1380.28125 654.949219 1382.019531 737.246094 C 1383.757812 819.546875 1369.847656 899.527344 1340.289062 976.03125 C 1310.152344 1054.851562 1264.945312 1126.71875 1205.832031 1188.152344 C 1146.714844 1249.589844 1077.164062 1297.691406 999.503906 1331.308594 C 924.160156 1363.761719 844.757812 1380.570312 762.457031 1382.308594 C 757.824219 1382.308594 753.765625 1382.308594 749.128906 1382.308594 C 671.464844 1382.308594 595.542969 1368.398438 523.675781 1340.582031 Z M 738.117188 187.8125 C 588.007812 190.710938 447.75 252.148438 344.007812 360.527344 C 240.265625 468.90625 184.625 611.480469 187.523438 761.589844 C 190.421875 911.699219 251.855469 1051.953125 360.238281 1155.699219 C 465.71875 1257.121094 603.65625 1312.183594 749.707031 1312.183594 C 753.765625 1312.183594 757.242188 1312.183594 761.300781 1312.183594 C 911.410156 1309.285156 1051.664062 1247.847656 1155.40625 1139.46875 C 1259.152344 1031.089844 1314.789062 888.515625 1311.890625 738.40625 C 1308.992188 588.296875 1247.558594 448.042969 1139.179688 344.296875 C 1033.699219 242.875 895.761719 187.8125 749.707031 187.8125 C 603.65625 187.8125 742.171875 187.8125 738.117188 187.8125 Z M 738.117188 187.8125 " fill-opacity="1" fill-rule="nonzero"/></g><g clip-path="url(#14b30c6981)"><g clip-path="url(#300827260e)"><g transform="matrix(1, 0, 0, 1, 441, 423)"><g clip-path="url(#90d8b5af01)"><g clip-path="url(#d2ad1fc26a)"><g clip-path="url(#96592357d6)"><g clip-path="url(#75a6e4dab2)"><path fill="#ffffff" d="M 453.765625 382.019531 C 472.917969 382.25 489.539062 364.65625 489.75 346.863281 C 491.34375 329.089844 473.765625 311.085938 454.613281 310.859375 C 435.460938 310.628906 418.835938 326.863281 418.609375 346.015625 C 418.378906 365.167969 434.613281 381.792969 453.765625 382.019531 " fill-opacity="1" fill-rule="nonzero"/></g></g></g><g clip-path="url(#68060e17cb)"><g clip-path="url(#0cb8321bff)"><g clip-path="url(#5c534eab85)"><path fill="#ffffff" d="M 274.945312 345.664062 C 274.71875 364.820312 290.949219 381.441406 308.722656 381.65625 C 329.257812 381.898438 344.480469 367.035156 344.726562 346.496094 C 343.625 324.605469 328.738281 309.359375 309.585938 309.128906 C 290.433594 308.902344 273.828125 325.132812 274.945312 345.664062 " fill-opacity="1" fill-rule="nonzero"/></g></g></g><g clip-path="url(#bf02f3fb50)"><g clip-path="url(#a52a3c7f85)"><g clip-path="url(#eedc1072c9)"><path fill="#ffffff" d="M 162.367188 378.546875 C 181.519531 378.777344 198.140625 361.179688 198.351562 343.390625 C 199.925781 325.617188 182.367188 307.613281 163.214844 307.386719 C 144.042969 307.15625 127.4375 323.390625 127.210938 342.542969 C 126.980469 361.695312 143.195312 378.320312 162.367188 378.546875 " fill-opacity="1" fill-rule="nonzero"/></g></g></g><g clip-path="url(#1330ad2d1e)"><g clip-path="url(#0cc6120917)"><g clip-path="url(#4aec3cd98d)"><path fill="#ffffff" d="M 562.765625 96.9375 L 459.710938 193.324219 C 454.679688 198.074219 448.0625 200.65625 441.210938 200.574219 L 103.457031 196.550781 C 79.019531 196.257812 58.785156 215.9375 58.492188 240.476562 L 55.539062 488.078125 L 558.035156 494.070312 Z M 78.917969 592.824219 C 92.703125 592.988281 104.023438 581.917969 104.1875 568.152344 C 104.351562 554.46875 93.300781 543.125 79.511719 542.960938 C 65.726562 542.796875 54.386719 553.871094 54.222656 567.554688 C 54.058594 581.320312 65.132812 592.660156 78.917969 592.824219 Z M 173.691406 593.957031 C 187.476562 594.121094 198.796875 583.046875 198.960938 569.28125 C 199.125 555.597656 188.070312 544.257812 174.285156 544.09375 C 160.582031 543.929688 149.261719 555.003906 149.097656 568.6875 C 148.933594 582.453125 159.988281 593.792969 173.691406 593.957031 Z M 268.546875 595.085938 C 282.25 595.25 293.570312 584.175781 293.734375 570.410156 C 293.898438 556.726562 282.84375 545.386719 269.140625 545.222656 C 255.355469 545.058594 244.035156 556.132812 243.871094 569.816406 C 243.707031 583.582031 254.761719 594.921875 268.546875 595.085938 Z M 511.691406 651.796875 L 98.089844 646.867188 C 44.222656 646.226562 0.824219 601.863281 1.46875 547.894531 L 5.140625 239.839844 C 5.785156 185.871094 50.226562 142.578125 104.09375 143.21875 L 431.09375 147.117188 L 571.914062 15.222656 C 577.03125 10.390625 583.726562 7.890625 590.496094 7.972656 C 593.964844 8.011719 597.589844 8.777344 600.875 10.242188 C 610.6875 14.527344 616.972656 24.304688 616.84375 34.976562 L 610.644531 555.15625 C 610 609.125 565.558594 652.4375 511.691406 651.796875 " fill-opacity="1" fill-rule="nonzero"/></g></g></g></g></g></g></g></svg>